<?xml version="1.0" encoding="UTF-8"?><svg id="Layer_2" xmlns="http://www.w3.org/2000/svg" viewBox="0 0 250 38.93"><defs><style>.cls-1{fill:#353e43;}</style></defs><g id="Layer_1-2"><path class="cls-1" d="M17.52,38.93c-3.5,0-6.57-.77-9.22-2.31s-4.69-3.69-6.14-6.45c-1.44-2.76-2.17-5.93-2.17-9.53,0-3.78.77-7.14,2.31-10.06,1.54-2.92,3.68-5.18,6.42-6.79,2.74-1.6,5.85-2.41,9.31-2.41,2.6,0,4.92.46,6.98,1.37,2.05.91,3.74,2.26,5.08,4.04s2.24,3.99,2.72,6.62l-2.36-4.04.67-7.51h2.12v13.47h-2.17c-.39-3.72-1.72-6.63-3.99-8.73-2.28-2.1-5.28-3.15-9-3.15-3.05,0-5.75.72-8.11,2.17-2.36,1.44-4.19,3.46-5.49,6.04-1.3,2.58-1.95,5.56-1.95,8.93s.64,6.09,1.93,8.54c1.28,2.45,3.06,4.36,5.34,5.7,2.28,1.35,4.88,2.02,7.8,2.02,2.37,0,4.59-.49,6.64-1.47,2.05-.98,3.69-2.31,4.91-3.99s1.83-3.52,1.83-5.51c0-1.25-.15-2.17-.46-2.74s-.88-.96-1.73-1.15c-.85-.19-2.19-.27-4.02-.24v-1.64h14.15v1.64c-1.64-.06-2.84.05-3.61.34-.77.29-1.3.87-1.59,1.73-.29.87-.43,2.23-.43,4.09v10.54h-2.02l-.67-7.51,2.21-2.16c-1.28,3.14-3.27,5.62-5.97,7.43-2.69,1.81-5.81,2.72-9.34,2.72Z"/><path class="cls-1" d="M52.31,38.93c-2.57,0-4.48-.57-5.75-1.71-1.27-1.14-2.05-2.41-2.33-3.8-.29-1.4-.43-2.94-.43-4.64v-5.44c0-2.41-.11-4.1-.34-5.08-.22-.98-.67-1.61-1.35-1.9-.67-.29-1.81-.37-3.42-.24v-1.68c2.34-.1,4.76-.27,7.27-.53v14.34c0,1.48.11,2.81.34,3.99.22,1.19.83,2.27,1.8,3.25.98.98,2.45,1.47,4.4,1.47,1.8,0,3.38-.43,4.76-1.3,1.38-.87,2.45-2.1,3.22-3.7s1.15-3.51,1.15-5.73h1.59c-.13,2.7-.68,5-1.66,6.91-.98,1.91-2.28,3.35-3.9,4.33-1.62.98-3.41,1.47-5.37,1.47ZM61.64,23.34c0-2.41-.11-4.1-.34-5.08-.22-.98-.67-1.61-1.35-1.9s-1.83-.37-3.47-.24v-1.68c2.34-.1,4.78-.27,7.31-.53v15.54c0,2.41.11,4.1.34,5.08.22.98.69,1.62,1.4,1.92.7.31,1.89.39,3.56.26v1.64c-2.12.07-4.54.24-7.27.53v-9.38l-.19-.87v-5.29Z"/><path class="cls-1" d="M77.81,38.45h-6.3v-1.64c1.64.07,2.79-.04,3.46-.31s1.12-.87,1.35-1.78c.22-.91.34-2.45.34-4.6v-6.79c0-2.41-.11-4.1-.34-5.08-.22-.98-.68-1.61-1.37-1.9-.69-.29-1.84-.37-3.44-.24v-1.68c2.34-.1,4.78-.27,7.31-.53v16.22c0,2.15.11,3.68.34,4.6.22.91.67,1.51,1.35,1.78s1.81.38,3.42.31v1.64h-6.16.05ZM77.04,8.37c-.74,0-1.35-.23-1.83-.7-.48-.46-.72-1.05-.72-1.76s.24-1.35.72-1.83,1.09-.72,1.83-.72,1.29.25,1.76.75c.46.5.7,1.1.7,1.8s-.23,1.29-.7,1.76-1.05.7-1.76.7Z"/><path class="cls-1" d="M85.61,38.45v-1.64c1.64.07,2.79-.04,3.47-.31s1.12-.87,1.35-1.78c.22-.91.34-2.45.34-4.6V9.43c0-2.41-.11-4.1-.34-5.08-.22-.98-.67-1.62-1.35-1.93-.67-.3-1.83-.39-3.47-.26V.53c2.34-.1,4.78-.27,7.31-.53v30.13c0,2.15.11,3.68.34,4.6.22.91.67,1.51,1.35,1.78s1.83.38,3.47.31v1.64h-12.46Z"/><path class="cls-1" d="M120.07,19.25c-.83-1.12-1.99-1.98-3.47-2.57-1.48-.59-2.95-.89-4.43-.89-1.89,0-3.57.47-5.03,1.42-1.46.95-2.59,2.26-3.39,3.95-.8,1.68-1.2,3.6-1.2,5.75,0,3.05.77,5.49,2.31,7.31,1.54,1.83,3.64,2.74,6.3,2.74,2.47,0,4.47-.78,5.99-2.33,1.52-1.56,2.29-3.83,2.29-6.81V9.43c0-2.41-.11-4.1-.34-5.08-.22-.98-.67-1.62-1.35-1.93-.67-.3-1.83-.39-3.46-.26V.53c2.34-.1,4.78-.27,7.31-.53v29.45c0,2.41.11,4.1.34,5.08.22.98.69,1.62,1.39,1.92.71.31,1.89.39,3.56.26v1.64c-2.12.07-4.54.24-7.27.53v-5.97l.34.34c-.83,1.86-2.09,3.27-3.75,4.24s-3.55,1.44-5.63,1.44-4-.5-5.56-1.49c-1.56-.99-2.75-2.38-3.59-4.16s-1.25-3.83-1.25-6.14c0-2.6.51-4.91,1.54-6.93,1.03-2.02,2.48-3.58,4.35-4.69s4-1.66,6.38-1.66c1.41,0,2.81.21,4.19.63,1.38.42,2.52,1.03,3.42,1.83v2.93Z"/><path class="cls-1" d="M140.13,38.93c-2.21,0-4.16-.51-5.85-1.54-1.68-1.03-2.98-2.47-3.87-4.33-.9-1.86-1.35-4.01-1.35-6.45s.5-4.68,1.49-6.62,2.39-3.45,4.19-4.52c1.8-1.07,3.85-1.61,6.16-1.61,2.15,0,3.99.5,5.53,1.49,1.54.99,2.71,2.42,3.51,4.28.8,1.86,1.15,4.07,1.06,6.64h-20.6v-1.93h19.15l-.91,1.01c.06-3.01-.62-5.37-2.05-7.05-1.43-1.68-3.44-2.53-6.04-2.53-1.89,0-3.53.48-4.91,1.44-1.38.96-2.43,2.26-3.15,3.9-.72,1.64-1.08,3.45-1.08,5.44,0,3.21.83,5.74,2.5,7.6,1.67,1.86,3.88,2.79,6.64,2.79,1.93,0,3.59-.47,5.01-1.42,1.41-.95,2.52-2.3,3.32-4.07l1.64.82c-.99,2.18-2.37,3.83-4.14,4.96-1.76,1.12-3.85,1.68-6.26,1.68Z"/><path class="cls-1" d="M160.92,38.45h-7.03v-1.64c1.86.07,3.18-.05,3.95-.34s1.28-.88,1.54-1.78.39-2.42.39-4.57V10.2c0-2.15-.13-3.67-.39-4.57-.26-.9-.77-1.49-1.54-1.78-.77-.29-2.09-.4-3.95-.34v-1.64h6.93-.05,7.03v1.64c-1.86-.06-3.18.05-3.95.34-.77.29-1.28.88-1.54,1.78-.26.9-.38,2.42-.38,4.57v19.92c0,2.15.13,3.67.38,4.57s.77,1.49,1.54,1.78,2.09.4,3.95.34v1.64h-6.93.05ZM160.83,20.55v-1.92h26.28v1.92h-26.28ZM180.12,38.45v-1.64c1.86.07,3.18-.05,3.95-.34s1.28-.88,1.54-1.78.39-2.42.39-4.57V10.2c0-2.15-.13-3.67-.39-4.57-.26-.9-.77-1.49-1.54-1.78-.77-.29-2.09-.4-3.95-.34v-1.64h6.93-.05,7.03v1.64c-1.83-.06-3.13.05-3.9.34-.77.29-1.28.88-1.54,1.78-.26.9-.38,2.42-.38,4.57v19.92c0,2.15.13,3.67.38,4.57s.77,1.49,1.54,1.78c.77.29,2.07.4,3.9.34v1.64h-13.91Z"/><path class="cls-1" d="M204.76,38.93c-2.34,0-4.2-.54-5.58-1.61-1.38-1.07-2.07-2.61-2.07-4.6,0-1.8.49-3.21,1.47-4.24.98-1.03,2.16-1.75,3.54-2.17,1.38-.42,3.16-.82,5.34-1.2,1.6-.29,2.83-.55,3.68-.79.85-.24,1.56-.59,2.14-1.03.58-.45.87-1.04.87-1.78,0-1.92-.57-3.36-1.71-4.31-1.14-.95-2.85-1.42-5.12-1.42-1.51,0-2.8.2-3.87.6-1.08.4-1.61,1.03-1.61,1.9,0,.26.03.58.1.96.03.16.06.34.07.53.02.19.02.4.02.63,0,.58-.18,1.06-.53,1.44-.35.39-.8.58-1.35.58-.61,0-1.1-.2-1.47-.6-.37-.4-.55-.94-.55-1.61,0-1.19.4-2.26,1.2-3.22.8-.96,1.93-1.72,3.39-2.29,1.46-.56,3.14-.84,5.03-.84,2.92,0,5.11.65,6.57,1.95,1.46,1.3,2.19,3.25,2.19,5.85v11.07c0,1.15.18,2.08.55,2.77.37.69.99,1.03,1.85,1.03s1.46-.45,1.78-1.35c.32-.9.42-1.99.29-3.27h1.88c.26,1.93,0,3.5-.77,4.72-.77,1.22-1.94,1.83-3.51,1.83-1.38,0-2.43-.49-3.15-1.47-.72-.98-1.08-2.38-1.08-4.21l1.01-1.06c-.58,2.6-1.91,4.45-3.99,5.56-2.09,1.11-4.28,1.66-6.59,1.66ZM204.96,36.96c2.57,0,4.77-.65,6.62-1.95,1.84-1.3,2.77-3.26,2.77-5.89v-5.73l1.01.05c-.38,1.06-1.2,1.82-2.43,2.29-1.24.47-2.94.87-5.13,1.23-1.8.29-3.25.59-4.35.91-1.11.32-2.04.84-2.79,1.56s-1.13,1.74-1.13,3.06.5,2.43,1.49,3.25c.99.82,2.31,1.23,3.95,1.23Z"/><path class="cls-1" d="M223.44,38.45v-1.64c1.64.07,2.79-.04,3.47-.31s1.12-.87,1.35-1.78c.22-.91.34-2.45.34-4.6V9.43c0-2.41-.11-4.1-.34-5.08-.22-.98-.67-1.62-1.35-1.93-.67-.3-1.83-.39-3.47-.26V.53c2.34-.1,4.78-.27,7.31-.53v30.13c0,2.15.11,3.68.34,4.6.22.91.67,1.51,1.35,1.78s1.83.38,3.47.31v1.64h-12.46Z"/><path class="cls-1" d="M237.54,38.45v-1.64c1.64.07,2.79-.04,3.47-.31s1.12-.87,1.35-1.78c.22-.91.34-2.45.34-4.6V9.43c0-2.41-.11-4.1-.34-5.08-.22-.98-.67-1.62-1.35-1.93-.67-.3-1.83-.39-3.47-.26V.53c2.34-.1,4.78-.27,7.31-.53v30.13c0,2.15.11,3.68.34,4.6.22.91.67,1.51,1.35,1.78s1.83.38,3.47.31v1.64h-12.46Z"/></g></svg>